<svg width="150" height="150" viewBox="0 0 150 150" fill="none" xmlns="http://www.w3.org/2000/svg">
<path d="M150 75C150 33.5786 116.421 0 75 0C33.5786 0 0 33.5786 0 75C0 116.421 33.5786 150 75 150C116.421 150 150 116.421 150 75Z" fill="#FFDD00"/>
<path d="M77.5517 102.991H130V115H28.2414C37.5057 109.333 46.4712 103.846 55.1379 98.5382C63.954 93.2309 71.7241 88.1035 78.4483 83.1559C85.1724 78.1185 90.5517 73.3058 94.5862 68.7181C98.7702 64.0404 100.862 59.5427 100.862 55.2249C100.862 52.0765 99.9655 49.3779 98.1724 47.1289C96.3793 44.7902 94.1379 42.9011 91.4483 41.4618C88.9081 39.9326 86.069 38.8081 82.931 38.0885C79.7931 37.3689 76.8793 37.009 74.1897 37.009C68.6608 37.009 64.1035 37.5937 60.5172 38.7631C57.0805 39.9326 54.316 41.3718 52.2241 43.081C50.1323 44.7002 48.6379 46.4093 47.7414 48.2084C46.9943 50.0075 46.6207 51.5817 46.6207 52.931C46.6207 55.9896 47.3677 58.6431 48.8621 60.8921C50.5057 63.141 52.6724 65.165 55.3621 66.964L43.2586 74.6552C40.569 73.6657 38.1034 72.3164 35.8621 70.6072C33.7701 68.8081 31.977 66.9191 30.4828 64.94C28.9885 62.8711 27.8678 60.8021 27.1207 58.7331C26.3736 56.5742 26 54.6402 26 52.931C26 49.3328 27.046 45.8696 29.1379 42.5412C31.2299 39.123 34.2931 36.1094 38.3276 33.5007C42.5115 30.8921 47.5919 28.823 53.569 27.2939C59.5461 25.7647 66.4195 25 74.1897 25C81.3621 25 87.8621 25.7647 93.6897 27.2939C99.5172 28.823 104.448 30.937 108.483 33.6357C112.667 36.2443 115.879 39.3029 118.121 42.8111C120.512 46.2293 121.707 49.8276 121.707 53.6057C121.707 58.0135 120.512 62.3314 118.121 66.5592C115.73 70.6972 112.443 74.835 108.259 78.973C104.224 83.021 99.5172 87.024 94.1379 90.982C88.9081 94.94 83.3793 98.943 77.5517 102.991Z" fill="#FF0000"/>
</svg>
